<?xml version="1.0" standalone="no"?>
<!DOCTYPE svg PUBLIC "-//W3C//DTD SVG 20010904//EN"
 "http://www.w3.org/TR/2001/REC-SVG-20010904/DTD/svg10.dtd">
<svg version="1.0" xmlns="http://www.w3.org/2000/svg"
 width="500.000000pt" height="500.000000pt" viewBox="0 0 500.000000 500.000000"
 preserveAspectRatio="xMidYMid meet">
<metadata>
Created by potrace 1.14, written by Peter Selinger 2001-2017
</metadata>
<g transform="translate(0.000000,500.000000) scale(0.100000,-0.100000)"
fill="#000000" stroke="none">
<path d="M0 2500 l0 -2500 2500 0 2500 0 0 2500 0 2500 -2500 0 -2500 0 0
-2500z m834 480 c23 -8 24 -12 15 -40 -9 -24 -17 -30 -40 -30 -19 0 -29 -5
-29 -15 0 -10 10 -15 30 -15 28 0 30 -2 30 -40 0 -38 -2 -40 -30 -40 l-30 0 0
-110 0 -110 -50 0 -50 0 0 110 c0 103 -1 110 -20 110 -15 0 -20 7 -20 25 0 14
9 30 20 37 11 7 20 23 20 35 0 72 76 113 154 83z m476 -66 l0 -75 26 20 c45
36 107 23 137 -29 39 -65 29 -179 -18 -226 -29 -28 -98 -33 -125 -9 -15 14
-18 14 -30 0 -7 -9 -29 -15 -51 -15 l-39 0 0 198 c0 109 3 202 7 205 3 4 26 7
50 7 l43 0 0 -76z m598 39 c3 -27 -1 -35 -22 -45 -39 -17 -76 3 -76 40 0 38 7
43 55 40 37 -3 40 -5 43 -35z m442 17 c22 -42 -24 -80 -74 -61 -20 8 -26 17
-26 39 0 37 6 42 51 42 28 0 41 -5 49 -20z m-1260 -105 c16 -8 34 -24 40 -34
5 -11 10 -72 10 -135 l0 -116 -31 0 c-18 0 -37 7 -44 16 -11 15 -14 15 -38 0
-29 -20 -94 -23 -125 -7 -25 13 -42 67 -34 106 6 35 52 62 119 71 55 7 63 13
38 34 -13 11 -33 10 -86 -6 -14 -4 -39 31 -39 56 0 27 144 39 190 15z m550
-11 l10 -26 31 27 c29 24 80 32 79 13 0 -5 0 -26 0 -48 0 -40 0 -40 -40 -40
-51 0 -60 -17 -60 -119 l0 -81 -50 0 -50 0 0 150 0 150 35 0 c29 0 37 -5 45
-26z m270 -124 l0 -150 -50 0 -50 0 0 150 0 150 50 0 50 0 0 -150z m288 116
c3 -22 -10 -45 -57 -107 l-60 -79 59 0 60 0 0 -40 0 -40 -120 0 -120 0 0 33
c1 24 16 51 60 107 l59 75 -59 3 -60 3 0 33 c0 18 3 36 7 40 4 3 57 5 117 4
l111 -3 3 -29z m152 -116 l0 -150 -50 0 -50 0 0 143 c0 79 3 147 7 150 3 4 26
7 50 7 l43 0 0 -150z m275 136 c55 -23 77 -68 73 -150 -4 -64 -6 -70 -41 -102
-36 -33 -59 -40 -127 -34 -94 7 -145 116 -104 220 28 70 118 99 199 66z
m-1736 -467 c28 -6 53 -15 57 -20 3 -5 0 -25 -7 -44 -10 -26 -17 -34 -29 -29
-42 17 -96 16 -120 -4 -20 -16 -25 -30 -28 -85 -4 -61 -2 -68 23 -93 23 -23
32 -26 73 -21 26 2 55 8 65 12 27 11 25 -70 -3 -85 -31 -17 -143 -14 -178 4
-91 47 -119 187 -58 290 26 44 52 63 107 76 47 11 43 11 98 -1z m356 0 c86
-23 133 -107 122 -215 -6 -62 -29 -107 -69 -137 -52 -39 -173 -39 -226 -1 -82
60 -97 226 -28 302 47 53 123 72 201 51z m365 -116 c18 -65 37 -125 41 -132 7
-15 21 27 65 187 l17 62 69 0 68 0 0 -190 0 -190 -45 0 -45 0 -1 133 -1 132
-37 -130 -37 -130 -50 -3 -51 -3 -34 123 -34 123 -3 -122 -3 -123 -44 0 -45 0
0 190 0 190 68 0 68 0 34 -117z m450 -73 l0 -190 -55 0 -55 0 0 190 0 190 55
0 55 0 0 -190z m280 64 l65 -125 3 125 3 126 44 0 45 0 0 -190 0 -190 -67 0
-68 0 -65 128 -65 127 -3 -128 -3 -127 -44 0 -45 0 0 190 0 190 68 0 67 0 65
-126z m470 86 l0 -40 -60 0 -60 0 0 -30 c0 -30 1 -30 55 -30 l55 0 0 -40 0
-40 -55 0 -55 0 0 -40 0 -40 60 0 60 0 0 -40 0 -40 -115 0 -115 0 0 190 0 190
115 0 115 0 0 -40z m330 1 l0 -40 -47 -3 -48 -3 -3 -147 -3 -148 -49 0 -50 0
0 150 0 150 -45 0 -45 0 0 40 0 40 145 0 145 0 0 -39z m310 -1 l0 -40 -45 0
-45 0 0 -150 0 -150 -50 0 -49 0 -3 148 -3 147 -47 3 -48 3 0 40 0 39 145 0
145 0 0 -40z m160 -150 l0 -190 -50 0 -50 0 0 190 0 190 50 0 50 0 0 -190z"/>
<path d="M1327 2793 c-12 -20 -16 -71 -9 -98 9 -33 48 -47 63 -23 13 20 11
102 -3 116 -13 13 -44 16 -51 5z"/>
<path d="M980 2695 c-16 -19 -6 -45 18 -45 23 0 42 19 42 42 0 22 -42 25 -60
3z"/>
<path d="M2526 2792 c-14 -22 -16 -89 -4 -112 17 -31 48 -38 65 -14 16 21 17
88 3 115 -11 19 -54 27 -64 11z"/>
<path d="M1130 2293 c-19 -24 -21 -38 -18 -92 4 -69 27 -101 73 -101 46 0 69
32 73 101 5 80 -19 119 -73 119 -25 0 -39 -7 -55 -27z"/>
</g>
</svg>
